HIERARCHY
ROOT hips_JNT
{
    OFFSET 0 0 0
    CHANNELS 6 Xposition Yposition Zposition Zrotation Xrotation Yrotation
    JOINT spine_JNT
    {
        OFFSET -0.000424254 9.31981 2.54342
        CHANNELS 3 Zrotation Xrotation Yrotation
        JOINT spine1_JNT
        {
            OFFSET 0 10.8731 -4.54485e-05
            CHANNELS 3 Zrotation Xrotation Yrotation
            JOINT spine2_JNT
            {
                OFFSET 0 12.4264 -5.95116
                CHANNELS 3 Zrotation Xrotation Yrotation
                JOINT neck_JNT
                {
                    OFFSET 0 13.9797 -1.46048
                    CHANNELS 3 Zrotation Xrotation Yrotation
                    JOINT head_JNT
                    {
                        OFFSET 0 5.8702 2.0915
                        CHANNELS 3 Zrotation Xrotation Yrotation
                        End Site
                        {
                            OFFSET 0 0 0
                        }
                    }
                }
                JOINT l_shoulder_JNT
                {
                    OFFSET 4.39914 12.861 -1.48501
                    CHANNELS 3 Zrotation Xrotation Yrotation
                    JOINT l_arm_JNT
                    {
                        OFFSET 8.75735 -2.31198 -0.0490516
                        CHANNELS 3 Zrotation Xrotation Yrotation
                        JOINT l_forearm_JNT
                        {
                            OFFSET 26.9001 -4.76837e-05 1.2666e-05
                            CHANNELS 3 Zrotation Xrotation Yrotation
                            JOINT l_hand_JNT
                            {
                                OFFSET 23.0148 -4.76837e-05 -3.72529e-06
                                CHANNELS 3 Zrotation Xrotation Yrotation
                                JOINT l_handThumb1_JNT
                                {
                                    OFFSET 3.63 -0.779998 2.13
                                    CHANNELS 3 Zrotation Xrotation Yrotation
                                    JOINT l_handThumb2_JNT
                                    {
                                        OFFSET 3.55114 -2.11837 2.24006
                                        CHANNELS 3 Zrotation Xrotation Yrotation
                                        JOINT l_handThumb3_JNT
                                        {
                                            OFFSET 2.15911 -1.11631 0.963467
                                            CHANNELS 3 Zrotation Xrotation Yrotation
                                            End Site
                                            {
                                                OFFSET 0 0 0
                                            }
                                        }
                                    }
                                }
                                JOINT l_handIndex1_JNT
                                {
                                    OFFSET 10.5149 -0.0410199 2.19757
                                    CHANNELS 3 Zrotation Xrotation Yrotation
                                    JOINT l_handIndex2_JNT
                                    {
                                        OFFSET 2.75183 -0.102866 -0.139054
                                        CHANNELS 3 Zrotation Xrotation Yrotation
                                        JOINT l_handIndex3_JNT
                                        {
                                            OFFSET 2.35301 -0.0733972 -0.0904871
                                            CHANNELS 3 Zrotation Xrotation Yrotation
                                            End Site
                                            {
                                                OFFSET 0 0 0
                                            }
                                        }
                                    }
                                }
                                JOINT l_handMiddle1_JNT
                                {
                                    OFFSET 10.0671 0.139201 0.0595726
                                    CHANNELS 3 Zrotation Xrotation Yrotation
                                    JOINT l_handMiddle2_JNT
                                    {
                                        OFFSET 3.90903 -0.288403 -0.119066
                                        CHANNELS 3 Zrotation Xrotation Yrotation
                                        JOINT l_handMiddle3_JNT
                                        {
                                            OFFSET 2.3284 -0.0191092 -0.0594396
                                            CHANNELS 3 Zrotation Xrotation Yrotation
                                            End Site
                                            {
                                                OFFSET 0 0 0
                                            }
                                        }
                                    }
                                }
                                JOINT l_handRing1_JNT
                                {
                                    OFFSET 9.46811 0.132239 -1.80983
                                    CHANNELS 3 Zrotation Xrotation Yrotation
                                    JOINT l_handRing2_JNT
                                    {
                                        OFFSET 3.28153 -0.224054 -0.0339366
                                        CHANNELS 3 Zrotation Xrotation Yrotation
                                        JOINT l_handRing3_JNT
                                        {
                                            OFFSET 2.245 -0.0702143 -0.00838935
                                            CHANNELS 3 Zrotation Xrotation Yrotation
                                            End Site
                                            {
                                                OFFSET 0 0 0
                                            }
                                        }
                                    }
                                }
                                JOINT l_handPinky1_JNT
                                {
                                    OFFSET 8.49077 -0.0777721 -3.58415
                                    CHANNELS 3 Zrotation Xrotation Yrotation
                                    JOINT l_handPinky2_JNT
                                    {
                                        OFFSET 2.53217 -0.0730753 -0.0170402
                                        CHANNELS 3 Zrotation Xrotation Yrotation
                                        JOINT l_handPinky3_JNT
                                        {
                                            OFFSET 1.95121 0.0251174 0.0170089
                                            CHANNELS 3 Zrotation Xrotation Yrotation
                                            End Site
                                            {
                                                OFFSET 0 0 0
                                            }
                                        }
                                    }
                                }
                            }
                        }
                    }
                }
                JOINT r_shoulder_JNT
                {
                    OFFSET -4.39782 12.8606 -1.48501
                    CHANNELS 3 Zrotation Xrotation Yrotation
                    JOINT r_arm_JNT
                    {
                        OFFSET -8.75732 -2.312 -0.0490502
                        CHANNELS 3 Zrotation Xrotation Yrotation
                        JOINT r_forearm_JNT
                        {
                            OFFSET -26.9 0 1.00583e-05
                            CHANNELS 3 Zrotation Xrotation Yrotation
                            JOINT r_hand_JNT
                            {
                                OFFSET -23.0149 0 0
                                CHANNELS 3 Zrotation Xrotation Yrotation
                                JOINT r_handThumb1_JNT
                                {
                                    OFFSET -3.63 -0.779998 2.13
                                    CHANNELS 3 Zrotation Xrotation Yrotation
                                    JOINT r_handThumb2_JNT
                                    {
                                        OFFSET -3.5512 -2.118 2.24006
                                        CHANNELS 3 Zrotation Xrotation Yrotation
                                        JOINT r_handThumb3_JNT
                                        {
                                            OFFSET -2.1591 -1.116 0.963467
                                            CHANNELS 3 Zrotation Xrotation Yrotation
                                            End Site
                                            {
                                                OFFSET 0 0 0
                                            }
                                        }
                                    }
                                }
                                JOINT r_handIndex1_JNT
                                {
                                    OFFSET -10.5149 -0.0409961 2.19756
                                    CHANNELS 3 Zrotation Xrotation Yrotation
                                    JOINT r_handIndex2_JNT
                                    {
                                        OFFSET -2.7518 -0.102997 -0.13905
                                        CHANNELS 3 Zrotation Xrotation Yrotation
                                        JOINT r_handIndex3_JNT
                                        {
                                            OFFSET -2.353 -0.0730038 -0.0904899
                                            CHANNELS 3 Zrotation Xrotation Yrotation
                                            End Site
                                            {
                                                OFFSET 0 0 0
                                            }
                                        }
                                    }
                                }
                                JOINT r_handMiddle1_JNT
                                {
                                    OFFSET -10.0671 0.139999 0.05957
                                    CHANNELS 3 Zrotation Xrotation Yrotation
                                    JOINT r_handMiddle2_JNT
                                    {
                                        OFFSET -3.9091 -0.288999 -0.11907
                                        CHANNELS 3 Zrotation Xrotation Yrotation
                                        JOINT r_handMiddle3_JNT
                                        {
                                            OFFSET -2.3284 -0.019002 -0.05944
                                            CHANNELS 3 Zrotation Xrotation Yrotation
                                            End Site
                                            {
                                                OFFSET 0 0 0
                                            }
                                        }
                                    }
                                }
                                JOINT r_handRing1_JNT
                                {
                                    OFFSET -9.4681 0.133002 -1.80983
                                    CHANNELS 3 Zrotation Xrotation Yrotation
                                    JOINT r_handRing2_JNT
                                    {
                                        OFFSET -3.2816 -0.224996 -0.0339396
                                        CHANNELS 3 Zrotation Xrotation Yrotation
                                        JOINT r_handRing3_JNT
                                        {
                                            OFFSET -2.245 -0.0699997 -0.0083901
                                            CHANNELS 3 Zrotation Xrotation Yrotation
                                            End Site
                                            {
                                                OFFSET 0 0 0
                                            }
                                        }
                                    }
                                }
                                JOINT r_handPinky1_JNT
                                {
                                    OFFSET -8.4908 -0.0769973 -3.58415
                                    CHANNELS 3 Zrotation Xrotation Yrotation
                                    JOINT r_handPinky2_JNT
                                    {
                                        OFFSET -2.5322 -0.0740051 -0.0170402
                                        CHANNELS 3 Zrotation Xrotation Yrotation
                                        JOINT r_handPinky3_JNT
                                        {
                                            OFFSET -1.9512 0.0259995 0.0170097
                                            CHANNELS 3 Zrotation Xrotation Yrotation
                                            End Site
                                            {
                                                OFFSET 0 0 0
                                            }
                                        }
                                    }
                                }
                            }
                        }
                    }
                }
            }
        }
    }
    JOINT l_upleg_JNT
    {
        OFFSET 10.0614 -5.18575 -0.706233
        CHANNELS 3 Zrotation Xrotation Yrotation
        JOINT l_leg_JNT
        {
            OFFSET -0.348572 -45.5824 -0.819168
            CHANNELS 3 Zrotation Xrotation Yrotation
            JOINT l_foot_JNT
            {
                OFFSET 0.349145 -42.3325 -1.70849
                CHANNELS 3 Zrotation Xrotation Yrotation
                JOINT l_toebase_JNT
                {
                    OFFSET 0.0702709 -8.12666 12.8887
                    CHANNELS 3 Zrotation Xrotation Yrotation
                    End Site
                    {
                        OFFSET 0 0 0
                    }
                }
            }
        }
    }
    JOINT r_upleg_JNT
    {
        OFFSET -10.061 -5.18577 -0.706233
        CHANNELS 3 Zrotation Xrotation Yrotation
        JOINT r_leg_JNT
        {
            OFFSET 0.34858 -45.5824 -0.819165
            CHANNELS 3 Zrotation Xrotation Yrotation
            JOINT r_foot_JNT
            {
                OFFSET -0.34918 -42.3325 -1.70849
                CHANNELS 3 Zrotation Xrotation Yrotation
                JOINT r_toebase_JNT
                {
                    OFFSET -0.0702001 -8.12666 12.8887
                    CHANNELS 3 Zrotation Xrotation Yrotation
                    End Site
                    {
                        OFFSET 0 0 0
                    }
                }
            }
        }
    }
}
MOTION
Frames: 7
Frame Time: 0.04
0.0236453 103.088 0.00667849 2.50657 -12.6997 -58.8983 -3.29038 0.0104789 0.0395647 -0 0 0 -3.06727 -0.188574 4.03697 -5.03322 13.4045 4.01285 -15.2228 -10.6447 -2.63163 -1.58407e-14 -5.33608e-07 0 -73.8512 31.8769 -40.6629 -4.88331 0.353079 -8.26608 1.70755e-06 2.54444e-14 0 4.10661 20.7048 -22.2077 -0 0 0 -15.7508 -0.215177 1.55667 -24.9019 7.19945 1.59148 -32.1238 9.06374 2.61432 -21.3146 6.22331 1.17302 -29.0722 5.5507 1.44073 -37.4514 6.93413 2.35273 -24.8983 4.81306 1.06311 -33.1152 -3.1271 -0.930404 -42.6025 -3.87249 -1.51074 -28.377 -2.72106 -0.687562 -36.4015 -6.76866 -2.22693 -46.9338 -8.31284 -3.61399 -31.1629 -5.90876 -1.65039 -1.58407e-14 -5.33608e-07 0 51.7414 25.8231 27.1226 12.6098 3.7256 32.8049 4.26887e-07 8.53774e-07 0 -4.10661 20.7048 22.2077 -0 0 0 15.9032 0.219334 1.57118 25.1454 7.26459 -1.62217 32.4398 9.14188 -2.66473 21.5224 6.28067 -1.19549 29.3552 5.59964 -1.46657 37.8172 6.99122 -2.39755 25.1404 4.85661 -1.08497 33.4362 -3.15386 0.946252 43.0159 -3.90268 1.53795 28.652 -2.74516 0.701089 36.757 -6.82495 2.27044 47.3941 -8.37411 3.68074 31.4665 -5.96009 1.68093 -33.1542 -70.2115 -20.6786 -152.237 65.7748 138.167 1.70755e-06 1.10991e-05 0 -1.70755e-06 1.4941e-06 0 -16.5039 5.76329 0.814688 0.469846 -1.28204 0.068528 3.80645 0.0484585 0.0559529 0.00293761 -0.546906 0.314035 
0.0691003 103.045 0.0320163 2.21257 -12.4788 -59.1433 -2.8696 0.0113413 0.0395647 -3.15571e-14 -1.06722e-06 0 -3.06678 -0.204807 4.32531 -4.85969 13.6832 3.87954 -15.323 -10.9046 -2.68259 -1.58407e-14 5.33609e-07 0 -74.0301 31.8474 -40.5335 -4.74013 0.347087 -8.37108 1.70755e-06 2.54444e-14 0 4.10661 20.7048 -22.2077 -0 0 0 -15.7373 -0.21481 1.55365 -24.8803 7.19366 1.58852 -32.0957 9.05679 2.61043 -21.2961 6.21821 1.17168 -29.047 5.54634 1.43747 -37.4189 6.92904 2.34973 -24.8768 4.80919 1.06016 -33.0867 -3.12472 -0.929562 -42.5658 -3.8698 -1.50918 -28.3526 -2.71891 -0.686423 -36.37 -6.76365 -2.22447 -46.893 -8.30738 -3.6077 -31.1359 -5.90419 -1.64611 -1.58407e-14 5.33609e-07 0 51.7467 25.978 27.2126 12.6251 3.74554 32.9331 4.26887e-07 -6.36111e-15 0 -4.10661 20.7048 22.2077 -0 0 0 15.8883 0.218927 1.57069 25.1216 7.25824 -1.61927 32.4089 9.13427 -2.65944 21.5021 6.27508 -1.19352 29.3276 5.59487 -1.46551 37.7815 6.98566 -2.39264 25.1167 4.85236 -1.08136 33.4049 -3.15125 0.942938 42.9756 -3.89974 1.53541 28.6251 -2.74281 0.699972 36.7223 -6.81947 2.26527 47.3492 -8.36816 3.67456 31.4369 -5.95509 1.67674 -34.9415 -70.7211 -20.0638 -159.183 66.877 148.909 1.23246e-13 2.13443e-06 0 1.70755e-06 -3.41509e-06 0 -16.1953 5.8074 0.795242 0.467664 -1.28248 0.0969133 3.82076 0.101346 0.34264 0.00304364 -0.507888 0.314035 
0.129236 102.997 0.0530306 1.9107 -12.2591 -59.3328 -2.39871 0.0121692 0.068528 -8.53774e-07 -4.26887e-07 0.0559529 -3.07059 -0.219803 4.56707 -4.70287 14.0375 3.75965 -15.4574 -11.254 -2.75429 -0 0 0 -74.2555 31.8179 -40.3981 -4.48723 0.333867 -8.50569 -3.41509e-06 -3.41509e-06 0 4.10661 20.7048 -22.2077 -0 0 0 -15.7184 -0.214299 1.55163 -24.8501 7.18559 1.58655 -32.0566 9.0471 2.60382 -21.2704 6.21111 1.16767 -29.012 5.54028 1.43474 -37.3737 6.92195 2.34339 -24.8469 4.80379 1.0609 -33.047 -3.1214 -0.927877 -42.5146 -3.86605 -1.50347 -28.3186 -2.71592 -0.686423 -36.326 -6.75667 -2.21883 -46.836 -8.29975 -3.6001 -31.0983 -5.89783 -1.64231 -0 0 0 51.7186 26.176 27.353 12.6435 3.77033 33.0933 -4.69575e-06 -8.53774e-07 0 -4.10661 20.7048 22.2077 -0 0 0 15.8692 0.218405 1.56619 25.0911 7.2501 -1.61636 32.3694 9.1245 -2.65296 21.4761 6.26791 -1.19024 29.2922 5.58875 -1.46123 37.7358 6.97853 -2.38773 25.0865 4.84692 -1.07991 33.3647 -3.14791 0.944596 42.9238 -3.89597 1.53183 28.5907 -2.7398 0.699972 36.6778 -6.81243 2.26042 47.2916 -8.36051 3.66561 31.3989 -5.94867 1.6744 -37.7037 -71.3283 -20.9455 -165.635 67.413 158.604 -3.4151e-06 1.36604e-05 0 -1.70755e-06 3.41509e-06 0 -15.8799 5.87347 0.790305 0.466025 -1.28281 -0.148037 3.83408 0.15189 0.539591 0.00304793 -0.506289 0.311533 
0.19386 102.946 0.0551241 1.61986 -12.0605 -59.4511 -1.90604 0.0129281 0.0791294 2.48481e-16 -1.06722e-06 0 -3.07865 -0.232612 4.74414 -4.58055 14.4621 3.66838 -15.6201 -11.6886 -2.84185 -0 0 0 -74.5111 31.7918 -40.2742 -4.11229 0.31128 -8.65479 1.70755e-06 2.54444e-14 0 4.10661 20.7048 -22.2077 -0 0 0 -15.6941 -0.21364 1.55163 -24.8113 7.17517 1.58013 -32.0062 9.03458 2.59629 -21.2372 6.20194 1.16431 -28.9668 5.53245 1.42873 -37.3153 6.9128 2.3357 -24.8082 4.79682 1.05498 -32.9957 -3.11711 -0.921953 -42.4486 -3.8612 -1.49982 -28.2747 -2.71207 -0.684138 -36.2693 -6.74765 -2.21247 -46.7626 -8.2899 -3.58899 -31.0499 -5.88962 -1.63801 -0 0 0 51.6559 26.4099 27.5487 12.6632 3.79827 33.2757 3.41509e-06 -8.53774e-07 0 -4.10661 20.7048 22.2077 -0 0 0 15.8461 0.217771 1.56369 25.0541 7.24019 -1.612 32.3213 9.11262 -2.64587 21.4445 6.25918 -1.18563 29.2491 5.58131 -1.45586 37.6801 6.96985 -2.38051 25.0496 4.8403 -1.07701 33.3159 -3.14384 0.941276 42.8609 -3.89139 1.52877 28.5489 -2.73613 0.695485 36.6237 -6.80388 2.25349 47.2216 -8.35121 3.65534 31.3527 -5.94087 1.66831 -41.4912 -71.9804 -23.2787 -171.309 67.5158 167.027 -8.53774e-06 7.68396e-06 0 1.70755e-06 -2.56132e-06 0 -15.5732 5.96041 0.782342 0.462843 -1.28345 -0.193827 3.83851 0.200828 0.720904 0.00287662 -0.569186 0.30901 
0.253744 102.894 0.0274844 1.35555 -11.8999 -59.4975 -1.421 0.0133426 0 -4.26887e-07 -2.34788e-06 0 -3.09133 -0.242574 4.85474 -4.50746 14.9469 3.6168 -15.7989 -12.1926 -2.94519 -2.13443e-07 -6.4033e-07 0 -74.773 31.7737 -40.1819 -3.61364 0.277893 -8.79184 -1.70755e-06 -3.41509e-06 0 4.10661 20.7048 -22.2077 -0 0 0 -15.6646 -0.212843 1.54658 -24.7642 7.16255 1.57566 -31.9451 9.01942 2.58633 -21.197 6.19083 1.15892 -28.9121 5.52295 1.42489 -37.2445 6.9017 2.32798 -24.7614 4.78838 1.05126 -32.9336 -3.11192 -0.919403 -42.3686 -3.85532 -1.49354 -28.2215 -2.70739 -0.680697 -36.2005 -6.73671 -2.20361 -46.6735 -8.27795 -3.57588 -30.9911 -5.87965 -1.63179 -2.13443e-07 -6.4033e-07 0 51.5659 26.6653 27.7982 12.6818 3.82648 33.4624 4.96962e-17 8.53774e-07 0 -4.10661 20.7048 22.2077 -0 0 0 15.8192 0.217039 1.56269 25.0112 7.22871 -1.60421 32.2656 9.09886 -2.63698 21.4079 6.24907 -1.18298 29.1992 5.57268 -1.45317 37.6156 6.95979 -2.37293 25.007 4.83262 -1.07191 33.2593 -3.13912 0.937944 42.7881 -3.88607 1.52209 28.5004 -2.73189 0.6921 36.5611 -6.79396 2.24618 47.1405 -8.34042 3.64397 31.2992 -5.93182 1.66314 -46.1966 -72.6119 -26.8958 -175.996 67.3131 173.989 -3.4151e-06 4.69575e-06 0 1.70755e-06 8.53774e-06 0 -15.2896 6.06355 0.794257 0.459557 -1.2841 -0.328649 3.8253 0.243636 0.800148 0.00250397 -0.706042 0.303902 
0.305134 102.845 -0.0327066 1.12864 -11.789 -59.4832 -0.973276 0.0139277 0.0395647 -8.53774e-07 -4.26887e-07 0 -3.10773 -0.250111 4.90959 -4.49562 15.4762 3.61399 -15.9724 -12.7384 -3.05247 -4.26887e-07 -1.06722e-07 0 -75.0137 31.7679 -40.1402 -3.00041 0.2332 -8.88641 -1.70755e-06 -6.83019e-06 0 4.10661 20.7048 -22.2077 -0 0 0 -15.6308 -0.21193 1.54405 -24.7101 7.14805 1.56719 -31.875 9.002 2.57571 -21.1509 6.17807 1.15418 -28.8492 5.51205 1.41828 -37.1633 6.88896 2.31854 -24.7077 4.77869 1.04679 -32.8623 -3.10595 -0.915136 -42.2769 -3.84857 -1.48935 -28.1604 -2.70202 -0.677239 -36.1216 -6.72415 -2.19507 -46.5714 -8.26421 -3.56184 -30.9237 -5.86822 -1.62313 -4.26887e-07 -1.06722e-07 0 51.4638 26.9227 28.0937 12.6976 3.85165 33.6305 -8.53774e-07 -4.26887e-06 0 -4.10661 20.7048 22.2077 -0 0 0 15.7895 0.216229 1.55918 24.9637 7.21601 -1.59933 32.204 9.08361 -2.62687 21.3673 6.23789 -1.17834 29.144 5.56314 -1.44777 37.5443 6.94865 -2.36401 24.9598 4.82412 -1.06825 33.1967 -3.1339 0.9346 42.7075 -3.88017 1.51643 28.4468 -2.72718 0.6921 36.4918 -6.78298 2.2378 47.0507 -8.32845 3.63128 31.24 -5.92181 1.65701 -51.5123 -73.1664 -31.4577 -179.581 66.9264 179.366 3.69739e-13 6.4033e-06 0 -1.35174e-14 -4.26887e-07 0 -15.0314 5.29619 0.826137 0.456087 0.539722 -0.399584 3.79994 -0.662578 0.900479 0.00222984 -0.806603 0.306467 
0.350716 102.804 -0.120298 0.946714 -11.7337 -59.4273 -0.590659 0.0142481 0.0395647 -0 0 0 -3.12638 -0.255601 4.92821 -4.5523 16.0295 3.66881 -16.1113 -13.2875 -3.15636 4.26887e-07 2.13443e-07 0 -75.2049 31.778 -40.165 -2.29526 0.178679 -8.90183 1.70755e-06 5.08889e-14 0 4.10661 20.7048 -22.2077 -0 0 0 -15.594 -0.21094 1.53897 -24.6514 7.13228 1.56019 -31.7987 8.98304 2.56353 -21.1007 6.1642 1.15011 -28.7809 5.50019 1.4133 -37.075 6.87508 2.30771 -24.6493 4.76815 1.04154 -32.7849 -3.09946 -0.913424 -42.1771 -3.84121 -1.48039 -28.0941 -2.69618 -0.677239 -36.0359 -6.71047 -2.18542 -46.4603 -8.24924 -3.54554 -30.8505 -5.85577 -1.61733 4.26887e-07 2.13443e-07 0 51.3712 27.1577 28.4204 12.7094 3.87014 33.7531 -3.41509e-06 -1.70755e-06 0 -4.10661 20.7048 22.2077 -0 0 0 15.7582 0.215377 1.55768 24.9136 7.2026 -1.59246 32.139 9.06752 -2.61672 21.3246 6.22609 -1.17435 29.0858 5.55307 -1.43964 37.4691 6.93689 -2.35505 24.91 4.81516 -1.06385 33.1307 -3.12839 0.932085 42.6225 -3.87395 1.51178 28.3903 -2.72222 0.689835 36.4187 -6.77139 2.22974 46.9561 -8.31582 3.61702 31.1775 -5.91125 1.64991 -56.9483 -73.623 -36.4605 177.964 66.4642 -176.893 1.70755e-06 6.83019e-06 0 5.08889e-14 -1.70755e-06 0 -14.8278 4.67227 0.862294 0.452472 2.05884 -0.524885 3.76426 -1.41147 0.942938 0.00223035 -0.806543 0.306467 
